<svg xmlns="http://www.w3.org/2000/svg" viewBox="0 0 60 36" width="60" height="36"><rect width="60" height="36" rx="5" fill="#000"/><path d="M14.4 14.1c-.4.5-1 .9-1.6.8-.1-.6.2-1.3.6-1.7.4-.5 1-.8 1.6-.9.1.6-.2 1.3-.6 1.8zm.6 1c-.9-.1-1.7.5-2.1.5-.5 0-1.1-.5-1.8-.5-.9 0-1.8.6-2.3 1.4-1 1.7-.3 4.3.7 5.7.5.7 1 1.5 1.8 1.5.7 0 1-.5 1.8-.5.8 0 1.1.5 1.8.5.8 0 1.3-.7 1.7-1.4.5-.8.7-1.6.7-1.6-.1 0-1.4-.5-1.4-2.1 0-1.3 1.1-1.9 1.1-2-.6-.9-1.6-1-2-1.1zm5.5-1.7v8.8h1.4v-3h1.9c1.7 0 2.9-1.2 2.9-2.9 0-1.7-1.2-2.9-2.9-2.9h-3.3zm1.4 1.1h1.6c1.2 0 1.8.6 1.8 1.8 0 1.2-.7 1.8-1.8 1.8h-1.6v-3.6zm6.3 7.8c.9 0 1.7-.5 2.1-1.2v1.1h1.3v-4.4c0-1.3-1-2.1-2.6-2.1-1.4 0-2.5.8-2.5 1.9h1.3c.1-.5.6-.8 1.2-.8.7 0 1.2.4 1.2 1v.4l-1.8.1c-1.7.1-2.5.7-2.5 1.9-.1 1.2.8 2.1 2.3 2.1zm.4-1.1c-.6 0-1.1-.3-1.1-.8 0-.5.4-.8 1.1-.8l1.6-.1v.5c0 .7-.7 1.2-1.6 1.2zm4.8 3.2c1.4 0 2-.5 2.5-2l2.5-7H37l-1.7 5.4-1.7-5.4h-1.5l2.4 6.7-.1.4c-.2.7-.5.9-1.2.9h-.4v1.1h.6z" fill="#fff"/></svg>
