<svg xmlns="http://www.w3.org/2000/svg" viewBox="0 0 60 36" width="60" height="36"><rect width="60" height="36" rx="5" fill="#fff" stroke="#dadce0" stroke-width="1"/><path d="M27.4 17.9v3.1h-1V13.5h2.7c.6 0 1.2.2 1.7.7s.7 1 .7 1.6c0 .7-.2 1.2-.7 1.6-.5.5-1 .7-1.7.7h-1.7zm0-3.4v2.5h1.7c.4 0 .7-.1 1-.4.3-.2.4-.6.4-.9 0-.4-.1-.7-.4-.9-.3-.2-.6-.4-1-.4h-1.7z" fill="#5F6368"/><path d="M33.9 15.7c.7 0 1.3.2 1.7.6.4.4.6.9.6 1.6V21h-.9v-.7c-.4.6-1 .9-1.6.9-.6 0-1.1-.2-1.5-.5-.4-.4-.6-.8-.6-1.3 0-.6.2-1 .6-1.3.4-.3 1-.5 1.7-.5.6 0 1.1.1 1.5.3v-.2c0-.4-.1-.7-.4-.9-.3-.3-.6-.4-1-.4-.6 0-1.1.3-1.4.8l-.8-.5c.5-.7 1.2-1 2.1-1zm-1.3 4c0 .3.1.5.3.7.2.2.5.3.8.3.4 0 .8-.2 1.1-.5.3-.3.5-.7.5-1.1-.4-.3-.9-.4-1.5-.4-.5 0-.9.1-1.1.3-.1.2-.1.4-.1.7z" fill="#5F6368"/><path d="M41.7 15.8L38.5 23h-1l1.2-2.5-2.1-4.7h1l1.5 3.6 1.5-3.6h1.1z" fill="#5F6368"/><path d="M24 17.4c0-.3 0-.6-.1-.9h-3.9v1.7h2.2c-.1.5-.4 1-.9 1.3v1.1h1.4c.8-.8 1.3-1.9 1.3-3.2z" fill="#4285F4"/><path d="M20 21.4c1.1 0 2.1-.4 2.7-1l-1.4-1.1c-.4.2-.9.4-1.4.4-1 0-1.9-.7-2.2-1.6h-1.4v1.1c.7 1.4 2 2.2 3.7 2.2z" fill="#34A853"/><path d="M17.9 18c-.1-.3-.1-.5-.1-.8 0-.3 0-.5.1-.8v-1.1h-1.4c-.3.6-.4 1.3-.4 1.9 0 .7.1 1.3.4 1.9l1.4-1.1z" fill="#FBBC04"/><path d="M20 14.7c.6 0 1.1.2 1.5.6l1.2-1.2c-.7-.7-1.7-1.1-2.7-1.1-1.6 0-3 .9-3.6 2.3l1.4 1.1c.3-1 1.1-1.7 2.2-1.7z" fill="#EA4335"/></svg>
