<svg xmlns="http://www.w3.org/2000/svg" viewBox="0 0 60 36" width="60" height="36"><rect width="60" height="36" rx="5" fill="#fff"/><path d="M21.6 24.9l2.4-13.5h3.8L25.4 24.9h-3.8zm17.5-13.2c-.8-.3-1.9-.6-3.3-.6-3.7 0-6.3 1.9-6.3 4.6 0 2 1.9 3.1 3.4 3.8 1.5.7 2 1.1 2 1.8 0 1-1.2 1.4-2.3 1.4-1.5 0-2.4-.2-3.7-.8l-.5-.2-.5 3.2c.9.4 2.6.7 4.3.7 3.9 0 6.5-1.9 6.5-4.8 0-1.6-1-2.9-3.3-3.9-1.4-.7-2.2-1.1-2.2-1.8 0-.6.7-1.3 2.3-1.3 1.3 0 2.2.3 3 .6l.3.2.5-3zm9.7-.3h-3c-.9 0-1.6.3-2 1.2l-5.7 12.3h4l.8-2.2h4.9l.5 2.2h3.5l-3-13.5zm-4.7 8.7c.3-.8 1.5-4 1.5-4l.4-1.1.2 1c0 0 .7 3.3.9 4.1h-3zM18.3 11.4l-3.8 9.2-.4-2c-.7-2.3-2.8-4.8-5.2-6l3.5 12.4 4 0 5.9-13.6h-4z" fill="#1A1F71"/><path d="M11.1 11.4H4.9l-.1.3c4.8 1.2 8 4.1 9.3 7.6l-1.3-6.7c-.2-.9-.9-1.2-1.7-1.2z" fill="#F7B600"/></svg>
